<?xml version="1.0" encoding="UTF-8"?>
<!DOCTYPE svg PUBLIC "-//W3C//DTD SVG 1.1//EN" "http://www.w3.org/Graphics/SVG/1.1/DTD/svg11.dtd">
<!-- Creator: CorelDRAW X7 -->
<svg xmlns="http://www.w3.org/2000/svg" xml:space="preserve" width="166.125mm" height="36.6508mm" version="1.1" style="shape-rendering:geometricPrecision; text-rendering:geometricPrecision; image-rendering:optimizeQuality; fill-rule:evenodd; clip-rule:evenodd"
viewBox="0 0 16492 3638"
 xmlns:xlink="http://www.w3.org/1999/xlink">
 <defs>
  <style type="text/css">
   <![CDATA[
    .fil0 {fill:#2B2A29;fill-rule:nonzero}
    .fil3 {fill:#F8AF43;fill-rule:nonzero}
    .fil2 {fill:#B4B4B7;fill-rule:nonzero}
    .fil1 {fill:#34ABE2;fill-rule:nonzero}
   ]]>
  </style>
 </defs>
 <g id="Ebene_x0020_1">
  <metadata id="CorelCorpID_0Corel-Layer"/>
  <polygon class="fil0" points="1424,2915 1424,2915 1424,2915 "/>
  <g id="_919308192">
   <polygon class="fil1" points="14676,3353 14729,3585 14492,3638 14440,3407 "/>
   <path class="fil1" d="M15432 3321c-16,48 -42,86 -78,114 -37,27 -80,47 -132,59 -58,13 -112,13 -161,1 -49,-13 -92,-35 -130,-68 -37,-32 -69,-71 -95,-118 -26,-47 -45,-98 -57,-152 -12,-52 -16,-104 -12,-156 3,-52 15,-100 35,-144 20,-43 49,-81 88,-114 38,-32 85,-55 142,-68 47,-10 93,-10 139,0 46,10 85,32 118,64l3 0 -88 -392 213 -48 244 1075 -204 46 -22 -100 -3 1zm-96 -383l0 0c-13,-28 -29,-52 -49,-71 -19,-19 -42,-33 -69,-42 -26,-9 -57,-9 -92,-1 -35,8 -63,21 -84,41 -21,19 -36,42 -45,69 -10,26 -14,55 -14,86 0,31 4,63 11,95 7,30 17,59 31,88 14,28 31,53 52,73 21,20 45,34 72,44 27,9 57,10 90,2 35,-8 63,-22 83,-41 21,-19 35,-42 44,-69 9,-27 13,-56 12,-88 -1,-31 -5,-63 -12,-95 -7,-32 -17,-62 -30,-91z"/>
   <path class="fil1" d="M16009 3099c39,24 88,29 149,15 43,-10 78,-29 104,-57 26,-29 40,-56 41,-82l189 -43c-9,101 -40,178 -93,232 -54,54 -124,92 -213,111 -61,14 -118,17 -172,9 -54,-9 -102,-27 -144,-56 -42,-28 -78,-65 -108,-111 -30,-46 -52,-99 -66,-160 -13,-58 -16,-114 -8,-169 8,-54 25,-104 52,-148 27,-45 62,-83 106,-115 44,-33 96,-55 155,-69 66,-15 127,-15 182,-1 55,15 103,40 144,76 42,36 76,80 102,132 27,52 45,109 54,170l-561 127c18,69 47,115 87,139zm148 -465l0 0c-31,-22 -74,-27 -126,-15 -34,7 -61,20 -81,36 -20,17 -35,35 -44,56 -10,20 -16,40 -17,60 -1,21 0,38 2,54l348 -79c-22,-52 -50,-89 -82,-112z"/>
  </g>
  <g id="_919311264">
   <path class="fil2" d="M798 1625c-137,0 -265,50 -368,134l0 -134 -430 0 0 1841 430 0 0 -560c103,84 231,134 368,134 110,0 213,-32 302,-88l-603 -495 0 -249 603 -495c-10,-7 -20,-13 -30,-18 -82,-45 -175,-70 -272,-70zm-423 1041l0 0 -233 0 0 -648 233 0 0 648z"/>
   <path class="fil2" d="M1100 1713c0,0 0,0 0,0l0 -1 0 1z"/>
   <path class="fil2" d="M1100 1713l0 1239c194,-120 324,-353 324,-620 0,-266 -131,-499 -324,-619z"/>
   <path class="fil2" d="M2873 2738l0 -717c0,-83 -19,-150 -56,-201 -38,-50 -86,-90 -144,-118 -59,-29 -124,-48 -195,-58 -71,-9 -141,-14 -210,-14 -77,0 -152,7 -228,22 -75,16 -143,41 -204,76 -60,36 -110,83 -149,142 -39,58 -61,132 -67,221l379 0c7,-75 32,-128 74,-160 43,-32 102,-48 176,-48 34,0 65,2 95,7 29,4 55,13 77,26 22,14 40,32 53,56 14,24 20,57 20,97 2,39 -10,69 -34,90 -25,20 -59,36 -102,46 -42,11 -91,19 -146,24 -55,6 -111,13 -168,22 -57,8 -113,20 -169,36 -56,15 -106,37 -149,67 -44,31 -79,71 -107,122 -27,50 -41,115 -41,193 0,71 12,132 36,184 24,51 57,94 100,128 42,33 92,58 149,74 57,16 118,24 184,24 85,0 168,-12 250,-37 82,-25 153,-69 213,-131 2,23 5,46 10,68 4,22 10,44 17,65l384 0c-18,-28 -31,-71 -38,-127 -7,-57 -10,-117 -10,-179zm-379 -226l0 0c0,21 -2,49 -6,85 -5,35 -17,70 -36,105 -20,35 -50,65 -91,89 -41,25 -99,38 -173,38 -30,0 -60,-3 -88,-8 -28,-6 -53,-15 -75,-28 -21,-14 -38,-32 -50,-55 -13,-23 -19,-51 -19,-85 0,-36 6,-65 19,-88 12,-23 29,-42 49,-57 20,-15 44,-27 72,-36 27,-9 55,-16 84,-22 30,-5 60,-9 90,-13 31,-3 60,-8 87,-13 28,-6 53,-12 77,-20 24,-8 44,-19 60,-34l0 142z"/>
   <path class="fil2" d="M3832 1651c-45,14 -87,34 -126,60 -39,26 -73,57 -103,93 -31,37 -55,76 -72,119l-6 0 0 -256 -359 0 0 1377 378 0 0 -620c0,-62 6,-120 19,-173 12,-54 33,-100 62,-140 29,-40 68,-72 116,-95 48,-23 107,-34 176,-34 23,0 47,1 72,3 25,3 46,6 64,10l0 -352c-30,-9 -58,-13 -83,-13 -48,0 -94,7 -138,21z"/>
   <path class="fil2" d="M4681 1254l-378 0 0 413 -229 0 0 253 229 0 0 813c0,69 12,125 35,168 23,42 54,75 94,98 40,23 86,39 139,47 52,8 108,12 166,12 38,0 76,-1 115,-3 39,-2 75,-5 107,-11l0 -293c-18,4 -37,7 -56,8 -20,2 -40,3 -62,3 -64,0 -106,-11 -128,-32 -21,-21 -32,-64 -32,-128l0 -682 278 0 0 -253 -278 0 0 -413z"/>
   <path class="fil2" d="M5702 2610l-6 0 -311 -943 -403 0 483 1292c10,27 16,55 16,85 0,41 -12,79 -36,112 -24,34 -61,54 -111,59 -37,2 -74,1 -112,-3 -37,-3 -73,-7 -109,-10l0 311c39,4 78,7 116,10 38,2 77,4 116,4 129,0 231,-24 303,-72 73,-48 130,-128 171,-240l575 -1548 -391 0 -301 943z"/>
   <path class="fil2" d="M7381 2721c-48,50 -118,76 -209,76 -58,0 -108,-14 -149,-40 -41,-27 -73,-61 -97,-103 -24,-42 -41,-88 -52,-140 -11,-51 -16,-102 -16,-152 0,-51 5,-103 16,-155 11,-53 29,-101 55,-144 25,-44 59,-79 99,-107 41,-27 92,-41 152,-41 162,0 255,79 280,237l370 0c-5,-89 -26,-166 -64,-230 -37,-65 -85,-119 -145,-163 -59,-43 -127,-76 -202,-97 -76,-22 -154,-32 -236,-32 -112,0 -211,19 -298,56 -87,37 -161,89 -221,156 -61,66 -107,145 -138,237 -31,91 -46,190 -46,297 0,103 17,197 50,284 34,86 81,160 142,222 60,62 133,111 219,145 86,35 181,52 284,52 183,0 333,-48 450,-144 117,-96 188,-235 213,-418l-365 0c-12,85 -43,153 -92,204z"/>
   <path class="fil2" d="M9242 1786c-37,-49 -88,-87 -153,-115 -65,-27 -148,-41 -249,-41 -71,0 -144,18 -218,54 -75,37 -136,95 -184,175l-8 0 0 -717 -379 0 0 1902 379 0 0 -722c0,-140 23,-241 69,-302 46,-61 121,-92 224,-92 90,0 153,28 189,84 35,56 53,141 53,255l0 777 379 0 0 -847c0,-85 -8,-163 -23,-233 -15,-70 -41,-129 -79,-178z"/>
   <path class="fil2" d="M10867 2738l0 -717c0,-83 -18,-150 -56,-201 -37,-50 -85,-90 -143,-118 -59,-29 -124,-48 -195,-58 -71,-9 -141,-14 -210,-14 -77,0 -153,7 -228,22 -76,16 -144,41 -204,76 -60,36 -110,83 -149,142 -39,58 -61,132 -67,221l379 0c7,-75 32,-128 74,-160 43,-32 101,-48 176,-48 34,0 65,2 95,7 29,4 55,13 77,26 22,14 40,32 53,56 13,24 20,57 20,97 2,39 -10,69 -35,90 -24,20 -58,36 -101,46 -42,11 -91,19 -146,24 -55,6 -111,13 -168,22 -57,8 -113,20 -169,36 -56,15 -106,37 -150,67 -43,31 -79,71 -106,122 -28,50 -41,115 -41,193 0,71 12,132 36,184 24,51 57,94 100,128 42,33 92,58 149,74 57,16 118,24 184,24 85,0 168,-12 250,-37 82,-25 153,-69 213,-131 2,23 5,46 9,68 5,22 11,44 18,65l383 0c-17,-28 -30,-71 -37,-127 -7,-57 -11,-117 -11,-179zm-378 -226l0 0c0,21 -2,49 -7,85 -4,35 -16,70 -36,105 -19,35 -49,65 -90,89 -41,25 -99,38 -173,38 -31,0 -60,-3 -88,-8 -29,-6 -53,-15 -75,-28 -21,-14 -38,-32 -50,-55 -13,-23 -19,-51 -19,-85 0,-36 6,-65 19,-88 12,-23 28,-42 49,-57 20,-15 44,-27 72,-36 27,-9 55,-16 84,-22 30,-5 60,-9 90,-13 30,-3 59,-8 87,-13 27,-6 53,-12 77,-20 24,-8 44,-19 60,-34l0 142z"/>
   <path class="fil2" d="M13135 1742c-45,-39 -98,-68 -160,-86 -63,-17 -130,-26 -203,-26 -96,0 -179,23 -249,69 -70,46 -126,100 -166,160 -38,-85 -92,-145 -164,-179 -72,-33 -152,-50 -239,-50 -90,0 -171,19 -241,58 -70,40 -130,95 -180,166l-5 0 0 -187 -357 0 0 1377 378 0 0 -799c0,-67 10,-122 30,-164 19,-41 43,-73 70,-96 28,-22 56,-37 86,-45 29,-8 52,-12 70,-12 60,0 106,10 137,31 31,20 54,47 67,81 13,34 21,71 23,111 1,40 2,80 2,121l0 772 379 0 0 -767c0,-42 3,-85 9,-126 6,-42 19,-79 37,-112 19,-33 45,-60 77,-80 33,-21 76,-31 130,-31 53,0 95,9 126,27 31,18 55,42 71,72 16,30 25,66 29,106 4,41 5,85 5,131l0 780 379 0 0 -921c0,-89 -13,-165 -38,-228 -24,-63 -59,-114 -103,-153z"/>
   <path class="fil2" d="M14355 1625c-157,0 -300,69 -409,183l0 -183 -407 0 0 1832 407 0 0 -553c109,114 252,183 409,183 80,0 156,-17 226,-50 18,-263 175,-477 380,-528 9,-49 14,-100 14,-153 0,-404 -278,-731 -620,-731zm-61 1151l0 0c-186,0 -337,-198 -337,-442 0,-244 151,-441 337,-441 187,0 338,197 338,441 0,244 -151,442 -338,442z"/>
  </g>
  <polygon class="fil3" points="10153,987 9830,821 9510,993 9568,634 9306,383 9665,327 9823,0 9987,324 10347,373 10089,629 "/>
  <polygon class="fil3" points="11287,987 10964,821 10644,993 10702,634 10440,383 10799,327 10957,0 11120,324 11480,373 11223,629 "/>
  <polygon class="fil3" points="12450,987 12127,821 11807,993 11865,634 11603,383 11962,327 12120,0 12284,324 12644,373 12386,629 "/>
  <polygon class="fil3" points="13614,987 13291,821 12970,993 13029,634 12766,383 13125,327 13283,0 13447,324 13807,373 13549,629 "/>
  <polygon class="fil3" points="14777,987 14454,821 14134,993 14192,634 13929,383 14288,327 14446,0 14610,324 14970,373 14712,629 "/>
  <g id="_919289280">
   <path class="fil1" d="M122 655c3,28 13,48 31,59 19,11 41,17 66,17 9,0 19,-1 31,-3 11,-1 22,-4 32,-8 10,-3 18,-9 24,-17 7,-7 10,-17 9,-29 0,-12 -5,-22 -13,-30 -8,-8 -19,-14 -32,-19 -13,-5 -28,-9 -45,-12 -17,-3 -33,-7 -51,-11 -18,-4 -35,-9 -51,-14 -16,-6 -31,-13 -44,-23 -13,-9 -24,-21 -31,-36 -8,-15 -12,-33 -12,-55 0,-23 6,-42 17,-58 11,-16 26,-29 43,-39 18,-9 37,-16 59,-20 21,-4 42,-6 61,-6 22,0 44,2 64,7 20,5 38,12 55,23 16,11 30,24 41,41 11,17 17,38 20,62l-99 0c-5,-23 -15,-38 -31,-46 -17,-8 -36,-12 -57,-12 -6,0 -14,1 -23,2 -10,1 -18,3 -26,6 -8,3 -15,8 -21,13 -5,6 -8,14 -8,23 0,12 4,21 12,29 8,7 19,13 32,18 13,4 28,8 45,12 16,3 34,7 51,11 18,3 35,8 51,14 17,5 32,13 45,22 13,10 24,22 32,36 8,15 12,32 12,53 0,26 -6,48 -17,66 -12,17 -27,32 -46,43 -19,11 -39,19 -62,24 -23,5 -46,8 -68,8 -27,0 -52,-4 -76,-10 -23,-6 -43,-15 -60,-28 -17,-12 -30,-28 -40,-46 -10,-19 -15,-41 -15,-67l95 0z"/>
   <path class="fil1" d="M862 794l-94 0 0 -60 -2 0c-11,22 -29,39 -52,52 -23,13 -46,20 -70,20 -57,0 -98,-14 -123,-43 -25,-28 -38,-70 -38,-127l0 -273 95 0 0 264c0,38 7,65 22,80 14,16 34,24 61,24 20,0 36,-4 50,-10 13,-6 24,-14 32,-24 8,-11 14,-23 18,-37 4,-15 5,-30 5,-47l0 -250 96 0 0 431z"/>
   <path class="fil1" d="M1253 507c-4,-27 -15,-47 -32,-60 -18,-14 -40,-21 -67,-21 -12,0 -25,2 -39,6 -14,4 -27,12 -38,24 -12,11 -22,27 -30,47 -7,21 -11,47 -11,80 0,18 2,35 6,53 4,18 11,34 20,48 9,14 21,25 36,34 14,8 32,13 52,13 28,0 51,-9 69,-26 18,-18 29,-42 34,-73l95 0c-9,56 -30,99 -64,129 -34,30 -78,45 -134,45 -34,0 -64,-6 -90,-18 -25,-11 -47,-27 -65,-46 -18,-20 -31,-43 -40,-71 -10,-27 -14,-56 -14,-88 0,-32 4,-63 13,-91 9,-28 22,-53 40,-74 18,-21 40,-37 66,-49 27,-12 58,-18 93,-18 25,0 49,3 72,10 22,6 42,16 60,28 17,13 32,29 43,49 11,19 17,42 20,69l-95 0z"/>
   <path class="fil1" d="M1425 198l95 0 0 221 2 0c12,-19 29,-35 52,-48 23,-13 49,-20 77,-20 48,0 85,12 112,37 27,24 41,61 41,110l0 296 -95 0 0 -271c-1,-34 -8,-59 -22,-74 -13,-15 -34,-23 -62,-23 -17,0 -31,3 -44,9 -13,6 -23,14 -32,24 -9,10 -16,22 -21,36 -5,14 -8,29 -8,45l0 254 -95 0 0 -596z"/>
   <path class="fil1" d="M1978 603c0,17 3,33 7,48 5,16 12,29 22,41 9,12 21,21 35,28 15,7 32,11 52,11 28,0 50,-6 67,-18 17,-12 30,-30 38,-54l90 0c-5,23 -13,44 -26,62 -12,19 -27,34 -44,47 -17,12 -36,22 -58,28 -21,6 -43,10 -67,10 -34,0 -64,-6 -90,-17 -26,-11 -48,-27 -66,-47 -18,-20 -32,-44 -41,-72 -9,-27 -14,-58 -14,-91 0,-31 5,-60 15,-87 9,-28 23,-52 41,-73 18,-21 40,-37 66,-50 25,-12 54,-18 87,-18 34,0 64,7 91,21 27,14 49,33 67,57 18,23 31,50 39,80 8,30 10,62 6,94l-317 0zm222 -63l0 0c-1,-15 -4,-29 -10,-43 -5,-14 -12,-26 -21,-36 -9,-11 -21,-19 -34,-25 -13,-7 -27,-10 -43,-10 -17,0 -32,3 -46,9 -13,6 -25,14 -35,24 -10,10 -17,22 -23,36 -6,14 -9,29 -10,45l222 0z"/>
   <path class="fil1" d="M2368 363l90 0 0 63 1 2c15,-24 34,-43 57,-57 24,-13 49,-20 78,-20 47,0 84,12 111,37 28,24 41,61 41,110l0 296 -95 0 0 -271c-1,-34 -8,-59 -21,-74 -14,-15 -35,-23 -63,-23 -16,0 -31,3 -43,9 -13,6 -24,14 -33,24 -9,10 -16,22 -21,36 -5,14 -7,29 -7,45l0 254 -95 0 0 -431z"/>
   <polygon class="fil1" points="3176,198 3176,794 3097,794 3097,198 "/>
   <path class="fil1" d="M3484 363l70 0 0 -36c0,-27 4,-50 10,-66 7,-17 16,-30 27,-40 11,-9 24,-15 38,-18 14,-3 29,-5 45,-5 30,0 53,2 66,6l0 74c-6,-1 -12,-2 -19,-3 -7,-1 -15,-2 -25,-2 -13,0 -24,4 -33,10 -9,6 -13,18 -13,35l0 45 80 0 0 71 -80 0 0 360 -96 0 0 -360 -70 0 0 -71z"/>
   <path class="fil1" d="M3791 198l95 0 0 90 -95 0 0 -90zm0 165l0 0 95 0 0 431 -95 0 0 -431z"/>
   <path class="fil1" d="M3990 363l90 0 0 63 2 2c14,-24 33,-43 56,-57 24,-13 49,-20 78,-20 47,0 84,12 112,37 27,24 40,61 40,110l0 296 -95 0 0 -271c-1,-34 -8,-59 -21,-74 -14,-15 -35,-23 -63,-23 -16,0 -30,3 -43,9 -13,6 -24,14 -33,24 -9,10 -16,22 -21,36 -5,14 -7,29 -7,45l0 254 -95 0 0 -431z"/>
   <path class="fil1" d="M4875 794l-90 0 0 -59 -2 0c-13,26 -31,43 -56,54 -24,11 -50,17 -78,17 -33,0 -63,-6 -88,-18 -26,-12 -47,-29 -63,-49 -17,-21 -29,-45 -38,-73 -8,-28 -12,-58 -12,-91 0,-39 5,-72 16,-101 10,-28 24,-51 42,-70 17,-18 37,-31 60,-40 22,-9 45,-13 68,-13 14,0 27,1 41,4 14,2 28,6 40,12 13,5 25,13 36,21 11,9 20,19 27,31l2 0 0 -221 95 0 0 596zm-332 -211l0 0c0,18 2,36 7,54 5,18 12,34 22,48 9,14 22,25 37,33 15,8 32,13 53,13 21,0 39,-5 55,-14 15,-9 27,-20 37,-35 10,-14 17,-31 22,-49 5,-18 7,-36 7,-55 0,-48 -11,-85 -32,-112 -22,-27 -51,-40 -87,-40 -23,0 -41,5 -57,14 -15,9 -27,21 -37,36 -10,14 -17,31 -21,50 -4,18 -6,37 -6,57z"/>
   <path class="fil1" d="M5052 603c0,17 3,33 7,48 5,16 12,29 22,41 9,12 21,21 36,28 14,7 31,11 51,11 28,0 50,-6 67,-18 17,-12 30,-30 38,-54l90 0c-5,23 -13,44 -25,62 -13,19 -27,34 -45,47 -17,12 -36,22 -58,28 -21,6 -43,10 -67,10 -34,0 -64,-6 -90,-17 -26,-11 -48,-27 -66,-47 -18,-20 -32,-44 -41,-72 -9,-27 -14,-58 -14,-91 0,-31 5,-60 15,-87 10,-28 23,-52 42,-73 18,-21 39,-37 65,-50 26,-12 54,-18 87,-18 34,0 64,7 91,21 27,14 49,33 67,57 18,23 31,50 39,80 8,30 10,62 6,94l-317 0zm222 -63l0 0c-1,-15 -4,-29 -9,-43 -6,-14 -13,-26 -22,-36 -9,-11 -20,-19 -33,-25 -14,-7 -28,-10 -44,-10 -17,0 -32,3 -46,9 -13,6 -25,14 -35,24 -9,10 -17,22 -23,36 -6,14 -9,29 -10,45l222 0z"/>
   <path class="fil1" d="M5442 363l90 0 0 63 2 2c14,-24 33,-43 56,-57 24,-13 49,-20 78,-20 47,0 84,12 112,37 27,24 40,61 40,110l0 296 -95 0 0 -271c-1,-34 -8,-59 -21,-74 -14,-15 -35,-23 -63,-23 -16,0 -30,3 -43,9 -13,6 -24,14 -33,24 -9,10 -16,22 -21,36 -5,14 -7,29 -7,45l0 254 -95 0 0 -431z"/>
   <polygon class="fil1" points="6250,198 6250,794 6171,794 6171,198 "/>
   <path class="fil1" d="M6558 363l71 0 0 -36c0,-27 3,-50 10,-66 6,-17 15,-30 26,-40 11,-9 24,-15 38,-18 14,-3 29,-5 45,-5 30,0 53,2 67,6l0 74c-7,-1 -13,-2 -20,-3 -7,-1 -15,-2 -25,-2 -12,0 -23,4 -33,10 -9,6 -13,18 -13,35l0 45 81 0 0 71 -81 0 0 360 -95 0 0 -360 -71 0 0 -71z"/>
   <path class="fil1" d="M6937 603c0,17 2,33 7,48 5,16 12,29 21,41 10,12 22,21 36,28 15,7 32,11 52,11 28,0 50,-6 67,-18 17,-12 30,-30 38,-54l90 0c-5,23 -13,44 -26,62 -12,19 -27,34 -44,47 -17,12 -36,22 -58,28 -21,6 -44,10 -67,10 -34,0 -64,-6 -90,-17 -26,-11 -48,-27 -66,-47 -18,-20 -32,-44 -41,-72 -9,-27 -14,-58 -14,-91 0,-31 5,-60 15,-87 9,-28 23,-52 41,-73 18,-21 40,-37 66,-50 25,-12 54,-18 87,-18 33,0 64,7 91,21 27,14 49,33 67,57 18,23 31,50 39,80 8,30 10,62 6,94l-317 0zm222 -63l0 0c-1,-15 -4,-29 -10,-43 -5,-14 -12,-26 -21,-36 -9,-11 -21,-19 -34,-25 -13,-7 -27,-10 -43,-10 -17,0 -32,3 -46,9 -14,6 -25,14 -35,24 -10,10 -17,22 -23,36 -6,14 -9,29 -10,45l222 0z"/>
   <path class="fil1" d="M7329 198l95 0 0 90 -95 0 0 -90zm0 165l0 0 95 0 0 431 -95 0 0 -431z"/>
   <path class="fil1" d="M7602 603c0,17 2,33 7,48 5,16 12,29 21,41 10,12 22,21 36,28 14,7 32,11 52,11 28,0 50,-6 67,-18 17,-12 29,-30 38,-54l90 0c-5,23 -14,44 -26,62 -12,19 -27,34 -44,47 -17,12 -37,22 -58,28 -22,6 -44,10 -67,10 -34,0 -64,-6 -90,-17 -26,-11 -49,-27 -67,-47 -18,-20 -31,-44 -40,-72 -10,-27 -14,-58 -14,-91 0,-31 5,-60 14,-87 10,-28 24,-52 42,-73 18,-21 40,-37 66,-50 25,-12 54,-18 86,-18 34,0 65,7 92,21 27,14 49,33 67,57 18,23 30,50 38,80 9,30 11,62 7,94l-317 0zm222 -63l0 0c-1,-15 -5,-29 -10,-43 -5,-14 -12,-26 -22,-36 -9,-11 -20,-19 -33,-25 -13,-7 -28,-10 -44,-10 -16,0 -32,3 -45,9 -14,6 -26,14 -35,24 -10,10 -18,22 -24,36 -5,14 -9,29 -9,45l222 0z"/>
   <path class="fil1" d="M7991 363l90 0 0 83 1 0c3,-12 8,-23 16,-34 9,-11 18,-21 30,-31 11,-9 24,-16 38,-22 14,-5 28,-8 42,-8 11,0 19,0 23,1 4,0 9,1 13,2l0 91c-7,-1 -13,-2 -20,-3 -7,0 -14,-1 -21,-1 -16,0 -31,3 -45,10 -14,6 -27,16 -37,28 -11,13 -19,28 -25,46 -7,19 -10,40 -10,64l0 205 -95 0 0 -431z"/>
   <path class="fil1" d="M8300 363l90 0 0 63 2 2c14,-24 33,-43 56,-57 24,-13 50,-20 78,-20 47,0 84,12 112,37 27,24 41,61 41,110l0 296 -96 0 0 -271c-1,-34 -8,-59 -21,-74 -14,-15 -34,-23 -63,-23 -16,0 -30,3 -43,9 -13,6 -24,14 -33,24 -9,10 -16,22 -21,36 -5,14 -7,29 -7,45l0 254 -95 0 0 -431z"/>
  </g>
 </g>
</svg>
